#!OML:ASF I:\Random Stuff\random\construction\7_22_03\Session 2\subj1.ASF
:FULLY-SPECIFIED
:DEGREES
988
root -16.8772 17.5936 0.805088 6.53862 -54.8861 360.165
lowerback 1.7268 -2.41399 -2.1866
upperback -0.263892 -3.25577 4.37333
thorax -0.862337 -1.62636 5.82357
lowerneck -13.4662 -10.901 -9.58934
upperneck 42.2054 -19.6721 6.77869
head 20.8983 -8.82149 0.552881
rclavicle -2.96189e-014 -1.43125e-014
rhumerus -19.995 55.6949 -87.1771
rradius 73.2231
rwrist 11.3919
rhand -12.435 26.4783
rfingers 7.12502
rthumb 13.6378 -3.05493
lclavicle -2.96189e-014 -1.43125e-014
lhumerus -25.1058 -39.5395 97.1462
lradius 64.0248
lwrist -10.1441
lhand -30.0547 51.1524
lfingers 7.12502
lthumb -3.37031 -278.895
rfemur -13.1901 10.8296 9.58195
rtibia 20.7411
rfoot -11.6644 -27.146
rtoes -4.52836
lfemur -8.36289 -3.05493 -20.6292
ltibia 21.2078
lfoot -24.5754 29.5406
ltoes 3.44493
989
root -16.984 17.5763 0.703621 6.90487 -55.7169 360.293
lowerback 1.44496 -2.45764 -2.06215
upperback -0.428208 -3.30767 4.32433
thorax -0.877358 -1.64959 5.69253
lowerneck -14.4862 -10.2291 -8.75824
upperneck 42.9551 -18.6952 6.22484
head 21.3373 -8.33275 0.314868
rclavicle -4.73108e-014 3.4191e-014
rhumerus -20.432 55.0573 -87.8452
rradius 72.9625
rwrist 12.0917
rhand -13.1121 27.034
rfingers 7.12502
rthumb 12.9851 -2.54192
lclavicle -4.73108e-014 3.4191e-014
lhumerus -25.3542 -39.7968 97.1502
lradius 63.9272
lwrist -11.0136
lhand -28.9461 51.6221
lfingers 7.12502
lthumb -2.29964 -278.411
rfemur -13.5268 11.2437 9.51062
rtibia 19.9253
rfoot -10.8462 -27.8805
rtoes -9.79962
lfemur -8.68894 -3.24782 -20.2199
ltibia 21.3396
lfoot -25.2714 30.1907
ltoes 4.13994
990
root -17.0979 17.5604 0.592692 7.03259 -56.7002 360.558
lowerback 1.30092 -2.42426 -2.09738
upperback -0.547796 -3.26049 4.2409
thorax -0.927983 -1.62207 5.621
lowerneck -15.5799 -9.48576 -7.82585
upperneck 43.6387 -17.6345 5.7058
head 21.7731 -7.79101 0.0902952
rclavicle -2.70347e-014 3.33958e-014
rhumerus -20.8254 54.3321 -88.497
rradius 72.7631
rwrist 12.9029
rhand -13.4708 27.5831
rfingers 7.12502
rthumb 12.6393 -2.01449
lclavicle -2.70347e-014 3.33958e-014
lhumerus -25.5682 -39.8762 97.0278
lradius 63.8822
lwrist -11.9649
lhand -27.8459 51.7023
lfingers 7.12502
lthumb -1.23707 -278.322
rfemur -14.0076 10.3011 9.70214
rtibia 19.5832
rfoot -9.78456 -26.6831
rtoes -16.2612
lfemur -8.76833 -3.47791 -19.8992
ltibia 21.3341
lfoot -25.8795 31.1462
ltoes 3.95868
991
root -17.2226 17.5487 0.470431 6.71416 -57.9594 360.956
lowerback 1.46542 -2.27649 -2.36112
upperback -0.541324 -3.06735 4.10053
thorax -1.02933 -1.52037 5.62976
lowerneck -15.3738 -8.83038 -7.37029
upperneck 42.8379 -16.8131 6.38941
head 21.0806 -7.36414 0.596493
rclavicle 6.69904e-014 2.22639e-014
rhumerus -21.1634 53.5035 -89.2067
rradius 72.7183
rwrist 13.8201
rhand -13.3044 27.5938
rfingers 7.12502
rthumb 12.7998 -1.99384
lclavicle 6.69904e-014 2.22639e-014
lhumerus -25.8297 -39.9799 96.8003
lradius 64.1178
lwrist -12.1109
lhand -27.2622 51.5791
lfingers 7.12502
lthumb -0.673282 -278.442
rfemur -14.3851 9.66902 10.0122
rtibia 19.6562
rfoot -9.48438 -24.7915
rtoes -14.8367
lfemur -8.31243 -3.41721 -19.6545
ltibia 21.1381
lfoot -26.4867 32.0666
ltoes 3.70707
992
root -17.3512 17.5431 0.347922 6.22322 -58.9898 361.377
lowerback 1.771 -2.21 -2.56084
upperback -0.509849 -2.98425 3.9506
thorax -1.17578 -1.47358 5.5988
lowerneck -15.7921 -8.03188 -6.66707
upperneck 42.7451 -15.7881 6.60564
head 20.9502 -6.8288 0.818811
rclavicle 1.0297e-013 2.46493e-014
rhumerus -21.46 52.7485 -89.9302
rradius 72.7256
rwrist 14.7169
rhand -13.2517 27.3795
rfingers 7.12502
rthumb 12.8506 -2.20493
lclavicle 1.0297e-013 2.46493e-014
lhumerus -26.1675 -40.0257 96.5521
lradius 64.4752
lwrist -11.7321
lhand -27.7148 50.719
lfingers 7.12502
lthumb -1.11042 -279.304
rfemur -14.6213 9.81601 10.3793
rtibia 20.0383
rfoot -9.68284 -23.8138
rtoes -14.3252
lfemur -7.5424 -4.54085 -19.4495
ltibia 20.714
lfoot -27.7176 33.6375
ltoes 5.05554
993
root -17.4821 17.5414 0.223627 5.81868 -59.799 361.625
lowerback 2.12525 -2.20139 -2.59388
upperback -0.457188 -2.97704 3.82885
thorax -1.32587 -1.4666 5.50525
lowerneck -16.2444 -7.2166 -6.02157
upperneck 42.7759 -14.7149 6.73884
head 20.9141 -6.28832 1.01537
rclavicle 3.97569e-016 -2.46493e-014
rhumerus -21.6199 52.021 -90.6123
rradius 72.5321
rwrist 15.6305
rhand -13.5707 27.5438
rfingers 7.12502
rthumb 12.5431 -2.05967
lclavicle 3.97569e-016 -2.46493e-014
lhumerus -26.4406 -39.9124 96.2755
lradius 64.7143
lwrist -11.5912
lhand -28.6794 49.3089
lfingers 7.12502
lthumb -2.04211 -280.721
rfemur -14.7566 9.82171 10.9802
rtibia 20.4961
rfoot -9.54893 -23.1686
rtoes -15.772
lfemur -6.67808 -5.71168 -19.1392
ltibia 20.2107
lfoot -29.1774 34.8719
ltoes 7.54176
994
root -17.6087 17.5454 0.103278 5.84528 -60.4224 361.457
lowerback 2.42696 -2.22181 -2.23311
upperback -0.413369 -2.99732 3.71882
thorax -1.47174 -1.47704 5.19887
lowerneck -16.8295 -6.39551 -5.18906
upperneck 43.0706 -13.6084 6.53236
head 21.0366 -5.73601 1.01017
rclavicle 4.03533e-014 2.46493e-014
rhumerus -21.8043 51.0574 -91.3186
rradius 72.3405
rwrist 16.7073
rhand -13.8364 27.8898
rfingers 7.12502
rthumb 12.2868 -1.72925
lclavicle 4.03533e-014 2.46493e-014
lhumerus -26.6064 -39.6263 95.9742
lradius 64.8067
lwrist -11.6319
lhand -28.8406 48.5556
lfingers 7.12502
lthumb -2.19778 -281.476
rfemur -14.8796 9.53244 11.8084
rtibia 20.8356
rfoot -9.50467 -22.3207
rtoes -16.8636
lfemur -5.97992 -7.00173 -18.6271
ltibia 19.826
lfoot -30.942 35.8804
ltoes 10.8242
995
root -17.7315 17.555 -0.0118502 6.23048 -60.9979 360.975
lowerback 2.65972 -2.27029 -1.6742
upperback -0.400514 -3.04616 3.6606
thorax -1.61579 -1.50395 4.83388
lowerneck -17.2658 -5.57144 -4.40035
upperneck 43.284 -12.5109 6.38844
head 21.0927 -5.19424 1.04647
rclavicle -2.27608e-014 9.54166e-015
rhumerus -22.1015 50.0901 -91.9845
rradius 72.3012
rwrist 17.8555
rhand -14.1515 28.3047
rfingers 7.12502
rthumb 11.9831 -1.33225
lclavicle -2.27608e-014 9.54166e-015
lhumerus -26.6941 -39.0881 95.6582
lradius 64.7758
lwrist -11.6751
lhand -28.3516 48.2008
lfingers 7.12502
lthumb -1.72544 -281.826
rfemur -14.9822 9.04349 12.7401
rtibia 21.025
rfoot -9.66423 -21.1604
rtoes -17.0097
lfemur -5.60459 -6.56743 -17.8555
ltibia 19.6749
lfoot -30.6582 36.1544
ltoes 10.4958
996
root -17.8526 17.5649 -0.120903 6.49301 -61.4054 360.707
lowerback 2.78566 -2.36797 -1.24144
upperback -0.412132 -3.16219 3.62351
thorax -1.71257 -1.56445 4.56122
lowerneck -17.6269 -4.78051 -3.70984
upperneck 43.4672 -11.4439 6.26581
head 21.1386 -4.67986 1.10469
rclavicle 4.9895e-014 -4.77083e-015
rhumerus -22.242 49.4043 -92.4582
rradius 72.0695
rwrist 18.8756
rhand -14.6085 28.6144
rfingers 7.12502
rthumb 11.5423 -1.04775
lclavicle 4.9895e-014 -4.77083e-015
lhumerus -26.7503 -38.5308 95.3862
lradius 64.8207
lwrist -11.4336
lhand -28.3669 47.7978
lfingers 7.12502
lthumb -1.74031 -282.23
rfemur -14.9813 7.92057 13.5592
rtibia 21.0227
rfoot -9.77113 -19.6226
rtoes -17.4922
lfemur -5.53631 -5.58519 -17.1471
ltibia 19.8458
lfoot -29.2683 36.1594
ltoes 8.63355
997
root -17.9806 17.5746 -0.232956 6.64573 -61.7817 360.517
lowerback 2.84513 -2.42845 -1.02536
upperback -0.387934 -3.23615 3.62219
thorax -1.72648 -1.60388 4.44278
lowerneck -18.0538 -4.00493 -2.94617
upperneck 43.7734 -10.3594 5.93372
head 21.277 -4.16838 1.04473
rclavicle 7.05686e-015 -5.56597e-015
rhumerus -22.253 48.8214 -92.8125
rradius 71.728
rwrist 19.6516
rhand -15.1068 28.7618
rfingers 7.12502
rthumb 11.0617 -0.926689
lclavicle 7.05686e-015 -5.56597e-015
lhumerus -26.8411 -38.131 95.1932
lradius 64.9952
lwrist -11.0103
lhand -28.8303 47.5054
lfingers 7.12502
lthumb -2.18783 -282.526
rfemur -14.7732 6.88427 14.3539
rtibia 20.813
rfoot -9.90504 -18.2377
rtoes -17.7933
lfemur -5.65271 -3.43044 -16.3513
ltibia 20.4
lfoot -26.6539 35.1896
ltoes 5.63779
998
root -18.1078 17.5881 -0.342272 6.92469 -62.1163 360.211
lowerback 2.8762 -2.47527 -0.820322
upperback -0.376996 -3.29197 3.67078
thorax -1.73661 -1.63422 4.38101
lowerneck -18.3577 -3.2616 -2.42143
upperneck 43.9612 -9.32406 5.8357
head 21.3639 -3.69123 1.13908
rclavicle 2.5345e-014 -1.51076e-014
rhumerus -22.3381 48.2882 -93.1108
rradius 71.4893
rwrist 20.2904
rhand -15.7887 28.8833
rfingers 7.12502
rthumb 10.404 -0.83934
lclavicle 2.5345e-014 -1.51076e-014
lhumerus -26.8672 -37.6875 95.0462
lradius 65.0783
lwrist -11
lhand -28.9694 47.0722
lfingers 7.12502
lthumb -2.32217 -282.961
rfemur -14.48 6.0772 15.1881
rtibia 20.4406
rfoot -9.9821 -17.0979
rtoes -18.1023
lfemur -5.97271 -0.985308 -15.4168
ltibia 21.328
lfoot -24.1308 33.3434
ltoes 4.66289
999
root -18.2328 17.6051 -0.44841 7.2705 -62.4009 359.834
lowerback 2.92819 -2.50203 -0.682299
upperback -0.402811 -3.32192 3.75904
thorax -1.79254 -1.65 4.39988
lowerneck -18.5308 -2.57226 -2.04372
upperneck 44.1162 -8.40638 5.91393
head 21.4367 -3.26641 1.32728
rclavicle -5.05907e-014 1.35174e-014
rhumerus -22.5705 47.84 -93.3751
rradius 71.3209
rwrist 20.8301
rhand -16.2635 28.8527
rfingers 7.12502
rthumb 9.94591 -0.892381
lclavicle -5.05907e-014 1.35174e-014
lhumerus -26.8068 -37.291 94.966
lradius 65.0553
lwrist -11.2181
lhand -28.8812 46.4891
lfingers 7.12502
lthumb -2.23698 -283.543
rfemur -14.1123 5.7026 16.0123
rtibia 19.9647
rfoot -9.98191 -16.3977
rtoes -18.0642
lfemur -6.45545 1.16085 -14.4138
ltibia 22.6017
lfoot -21.7666 31.2354
ltoes 5.09566
1000
root -18.3543 17.6216 -0.547875 7.59281 -62.5368 359.339
lowerback 3.07735 -2.53799 -0.497883
upperback -0.407279 -3.36135 3.82746
thorax -1.88413 -1.67075 4.37708
lowerneck -18.6755 -1.91624 -1.46978
upperneck 44.3768 -7.58849 5.84871
head 21.5692 -2.86548 1.38418
rclavicle -1.51076e-014 2.06736e-014
rhumerus -22.876 47.4272 -93.6775
rradius 71.1747
rwrist 21.2277
rhand -16.4017 28.7586
rfingers 7.12502
rthumb 9.81265 -0.992812
lclavicle -1.51076e-014 2.06736e-014
lhumerus -26.7115 -37.1286 94.8506
lradius 65.1028
lwrist -11.4042
lhand -28.6348 46.0111
lfingers 7.12502
lthumb -1.99904 -284.018
rfemur -13.5313 5.80192 16.8354
rtibia 19.44
rfoot -10.0428 -16.2029
rtoes -16.8654
lfemur -7.03033 3.15992 -13.3485
ltibia 24.1776
lfoot -19.0887 28.8216
ltoes 4.75617
1001
root -18.4697 17.6306 -0.639179 7.64367 -62.6668 358.975
lowerback 3.34735 -2.53949 -0.274752
upperback -0.351347 -3.35226 3.81386
thorax -1.99223 -1.66785 4.24994
lowerneck -18.7625 -1.34008 -0.957181
upperneck 44.5457 -6.90499 5.88185
head 21.6482 -2.51344 1.47212
rclavicle -8.34896e-015 -1.03368e-014
rhumerus -23.2071 46.9843 -94.048
rradius 71.0135
rwrist 21.5879
rhand -16.657 28.644
rfingers 7.12502
rthumb 9.56629 -1.11881
lclavicle -8.34896e-015 -1.03368e-014
lhumerus -26.4968 -37.2032 94.6392
lradius 65.142
lwrist -11.5433
lhand -28.0811 45.2674
lfingers 7.12502
lthumb -1.46421 -284.758
rfemur -12.7554 6.02373 17.5634
rtibia 18.8981
rfoot -10.1106 -16.1438
rtoes -15.3214
lfemur -7.57942 4.99734 -12.4
ltibia 25.9405
lfoot -16.9514 25.7941
ltoes 4.25646
